<?xml version="1.0" encoding="utf-8"?>
<!-- Generator: Adobe Illustrator 16.0.0, SVG Export Plug-In . SVG Version: 6.00 Build 0)  -->
<!DOCTYPE svg PUBLIC "-//W3C//DTD SVG 1.1//EN" "http://www.w3.org/Graphics/SVG/1.1/DTD/svg11.dtd">
<svg version="1.1" id="Layer_1" xmlns="http://www.w3.org/2000/svg" xmlns:xlink="http://www.w3.org/1999/xlink" x="0px" y="0px"
	 width="680.31px" height="150.24px" viewBox="0 0 680.31 150.24" enable-background="new 0 0 680.31 150.24" xml:space="preserve">
<g>
	<path fill="#414042" d="M0.918,23.436h21.618v31.838l27.304-31.838h26.84L46.006,56.09l34.507,50.308h-26.84L31.359,71.542
		l-8.824,9.296v25.561H0.918V23.436z"/>
	<path fill="#414042" d="M244.767,23.436h42.293c3.641,0,7.203,0.43,10.693,1.277c3.481,0.855,6.58,2.231,9.29,4.125
		c2.713,1.9,4.899,4.324,6.567,7.263c1.66,2.945,2.496,6.508,2.496,10.693c0,4.487-1.066,8.652-3.191,12.485
		c-2.132,3.833-5.402,6.609-9.819,8.311v0.232c2.165,0.542,3.986,1.509,5.462,2.906c1.47,1.397,2.668,3.018,3.602,4.878
		c0.928,1.861,1.623,3.854,2.093,5.986c0.458,2.132,0.768,4.165,0.927,6.098c0.073,0.854,0.151,2.174,0.232,3.954
		c0.079,1.779,0.232,3.646,0.464,5.572c0.231,1.941,0.582,3.759,1.045,5.464c0.47,1.706,1.045,2.947,1.747,3.718h-21.384
		c-0.464-0.695-0.854-1.66-1.159-2.906c-0.311-1.233-0.542-2.533-0.695-3.892c-0.159-1.35-0.277-2.607-0.35-3.775
		c-0.081-1.159-0.16-2.053-0.232-2.674c-0.16-2.091-0.391-4.14-0.702-6.156c-0.307-2.016-0.888-3.833-1.743-5.462
		c-0.853-1.629-2.032-2.921-3.542-3.894c-1.509-0.967-3.542-1.449-6.104-1.449h-16.379v30.208h-21.611V23.436z M266.378,59.46
		h18.126c3.252,0,5.728-0.834,7.435-2.502c1.704-1.662,2.556-4.086,2.556-7.257c0-3.098-1.066-5.369-3.198-6.799
		c-2.132-1.437-4.701-2.153-7.727-2.153h-17.192V59.46z"/>
	<path fill="#414042" d="M350.34,23.436h21.966l31.022,82.962h-22.536l-5.116-14.874h-28.938l-5.229,14.874h-22.193L350.34,23.436z
		 M351.739,75.495h18.819l-9.182-29.053h-0.232L351.739,75.495z"/>
	<g>
		<path fill="#414042" d="M408.035,23.436h7.898v76.222h46.478v6.74h-54.376V23.436z"/>
		<path fill="#414042" d="M499.412,23.436h8.825l32.539,82.962h-8.487l-10.101-25.793h-37.767l-9.998,25.793h-8.478L499.412,23.436z
			 M486.86,73.866h32.654l-16.038-42.532L486.86,73.866z"/>
		<path fill="#414042" d="M544.312,23.436h8.83l48.339,70.179h0.232V23.436h7.898v82.962h-8.834l-48.336-70.185h-0.231v70.185
			h-7.898V23.436z"/>
		<path fill="#414042" d="M613.139,23.436h28.696c12.552,0.311,22.04,3.873,28.474,10.693c6.424,6.812,9.641,17.081,9.641,30.785
			c0,13.719-3.217,23.981-9.641,30.795c-6.434,6.818-15.922,10.383-28.474,10.689h-28.696V23.436z M621.037,99.658h16.849
			c5.97,0,11.099-0.633,15.399-1.912c4.297-1.283,7.841-3.315,10.631-6.102c2.791-2.791,4.836-6.393,6.16-10.807
			c1.313-4.416,1.975-9.727,1.975-15.924s-0.662-11.5-1.975-15.915c-1.324-4.417-3.369-8.019-6.16-10.805
			c-2.79-2.788-6.334-4.821-10.631-6.106c-4.301-1.271-9.43-1.913-15.399-1.913h-16.849V99.658z"/>
	</g>
	<path fill="#007F3E" d="M404.703,119.877c-0.596,1.205-4.574,5.999-5.175,7.112c-1.995-1.938-2.459-3.651-5.133-6.268
		c-0.936,2.276-1.867,4.528-3.196,7.767c-0.961-4.182-1.697-4.322-2.69-8.611c-1.399,2.492-2.294,4.049-3.982,7.042
		c-0.621-1.569-1.098-2.729-1.789-4.483c-1.515,1.747-2.574,2.964-3.737,4.301c-1.292-1.146-2.58-2.289-4.363-3.857
		c-0.597,3.443-0.7,7.355-5.345,4.227c-0.621,2.574-1.118,1.871-1.81,4.752c-3.357-4.234-6.023-7.601-8.805-11.123
		c-0.248,1.105-0.555,2.537-0.981,4.463c-1.437-0.99-2.753-1.884-4.186-2.869c-0.529,0.993-1.051,1.991-1.829,3.478
		c-1.292-3.022-2.348-5.515-3.411-8.015c-0.489,0.021-0.364,1.416-0.861,1.432c-0.488,3.697-1.61,6.027-2.235,10.751
		c-3.016-3.39-5.572-6.271-8.756-9.864c-0.596,3.195-1.12,6.031-1.734,9.348c-2.525-3.743-4.955-7.345-7.383-10.954
		c-0.438,0.12,0.445-0.116,0,0c-0.122,3.738-1.559,7.841-1.681,11.591c-0.509,0.162-1.016,0.314-1.523,0.477
		c-1.399-2.894-2.802-5.775-4.906-10.105c0.137,4.463,0.226,7.518,0.319,10.568c-0.346,0.229-0.686,0.456-1.031,0.684
		c-2.117-3.564-4.237-7.116-6.948-11.649c-0.105,3.399-0.182,5.726-0.317,9.96c-1.623-3.887-2.54-6.102-3.881-9.293
		c-0.764,3.585-1.298,6.077-1.906,8.912c-1.623-2.707-3.078-5.125-4.297-7.137c-2.198,1.549-4.912,4.313-5.68,3.858
		c-2.285-1.341-3.788-3.982-5.953-6.524c-0.685,1.474-1.166,2.518-1.646,3.557c0.043-0.642-3.339,4.93-3.297,4.301
		c-4.181-0.335-4.961-6.867-9.213-7.203c0.405,3.775,0.683,6.28,1.099,10.192c-2.502-3.188-4.088-5.2-5.791-7.353
		c-0.981,1.847-1.766,3.333-2.826,5.349c-1.842-2.927-3.388-5.365-5.825-9.231c-0.136,4.301-0.223,7-0.308,9.695
		c-0.536,0.182-1.072,0.364-1.612,0.555c-1.52-3.088-3.043-6.164-4.928-9.969c-1.867,3.241-3.594,6.21-5.208,9.013
		c-2.072-1.064-4.251-2.19-7.108-3.647c0.364,2.306,0.613,3.842,1.12,7.046c-2.18-2.79-3.285-4.198-5.085-6.483
		c0.458,3.15,0.749,5.175,1.033,7.199c-0.433,0.294-0.867,0.608-1.298,0.898c-0.603-1.308-1.194-2.607-2.15-4.698
		c-1.304,2.045-1.998,3.158-2.677,4.227c-2.568-3.535-5.176-7.096-7.766-10.668c-0.462,0.248-0.923,0.476-1.381,0.725
		c0.17,3.299,0.335,6.615,0.534,10.548c-8.688-1.494-8.919-4.694-17.975-9.869c0.929,5.307-2.246,6.959-1.528,11.016
		c-0.759,0.314,0.766-0.314,0,0c-2.09-3.021-4.177-6.044-5.965-8.619c-2.343,2.24-4.841,4.645-7.675,7.353
		c-3.18-3.573-6.496-7.332-11.262-12.705c0.933,5.589,1.591,9.501,2.289,13.711c-2.442-3.511-4.736-6.798-7.038-10.093
		c-0.53,0.166-1.056,0.323-1.579,0.477c0.358,2.546,0.958,5.07,0.971,7.604c0.006,1.192-0.911,3.15-1.805,3.411
		c-1.265,0.355-3.359-0.066-4.276-0.978c-1.938-1.929-3.341-4.396-6.021-8.089c-0.838,4.008-1.228,5.837-1.668,7.94
		c-2.503-2.84-4.894-5.548-8.135-9.24c-0.42,3.966-0.725,6.847-1.085,10.233c-4.787-3.278-5.889-9.194-11.641-11.596
		c0.706,8.909-0.714,10.039-7.833,5.783c0.832,2.824,1.623,5.531,2.414,8.218c-0.443,0.203-0.875,0.41-1.323,0.617
		c-2.732-3.196-5.477-6.376-8.207-9.563c-0.321,0.199-0.64,0.402-0.962,0.604c0.83,2.028,1.67,4.065,2.509,6.09
		c-0.288,0.183-0.58,0.368-0.857,0.542c-1.157-1.461-2.297-2.922-4.115-5.232c0.166,2.277,0.273,3.659,0.465,6.064
		c-1.819-2.306-3.082-3.92-4.32-5.489c-2.84,0.911-5.717,1.843-9.364,3.019c0.045,0.293,0.215,1.398,0.445,2.873
		c-3.842-0.795-7.468-1.528-11.502-2.36c0.033,1.114,0.066,2.426,0.111,4.103c-1.697-2.132-3.165-3.986-4.949-6.226
		c-0.668,3.051-1.234,5.597-2.194,9.947c-0.95-1.88-1.546-3.08-2.211-4.413c-0.54,1.275-0.954,2.252-1,2.348
		c-3.45-2.633-7.022-5.353-10.591-8.052c-0.337,0.281-0.668,0.563-0.996,0.845c1.201,2.409,2.393,4.826,3.591,7.24
		c-0.192,0.178-0.383,0.335-0.569,0.501c-2.767-3.316-5.528-6.641-9.643-11.575c0.221,4.694,0.358,7.443,0.579,11.885
		c-3.144-3.733-5.319-6.32-8.017-9.525c-1.19,1.652-2.328,3.237-3.933,5.465c-2.279-0.845-5.992-2.228-9.858-3.659
		c-0.358,3.759-0.752,7.808-1.205,12.477c-4.462-4.181-7.131-10.995-15.16-8.718c0.892,2.434,1.881,5.166,2.875,7.902
		c-0.199,0.178-0.387,0.36-0.58,0.543c-2.794-3.366-5.578-6.736-8.368-10.102c-0.141,0.712-0.279,1.44-0.414,2.165
		c-2.904,0.129-5.82,0.261-8.753,0.39c0.064,0.111,0.567,0.931,1.016,1.775c0.414,0.791,0.768,1.615,0.211,3.088
		c-2.15-2.483-4.309-4.963-6.46-7.442c-0.381,0.187-0.759,0.372-1.136,0.563c0.851,3.176,1.335,4.96,2.763,10.259
		c-4.756-4.193-7.741-5.788-11.109-8.752c-0.404,0.281-0.801,0.563-1.205,0.836c1.569,3.052,3.144,6.127,4.85,9.443H395.86
		L404.703,119.877z"/>
	<g>
		<path fill="#414042" d="M416.303,119.877h5.903l7.592,29.049h-4.811l-1.771-7.116h-8.453l-1.854,7.116h-4.814L416.303,119.877z
			 M422.446,138.104l-3.313-14.319h-0.082l-3.437,14.319H422.446z"/>
		<path fill="#414042" d="M470.152,138.51v0.613c0,1.304-0.149,2.579-0.439,3.825c-0.298,1.246-0.79,2.355-1.481,3.332
			c-0.684,0.978-1.594,1.755-2.724,2.343c-1.135,0.58-2.551,0.87-4.248,0.87c-1.829,0-3.353-0.299-4.566-0.895
			c-1.213-0.597-2.189-1.515-2.926-2.766c-0.746-1.25-1.271-2.814-1.582-4.694c-0.307-1.888-0.464-4.131-0.464-6.735
			c0-2.604,0.157-4.848,0.464-6.731c0.311-1.883,0.836-3.452,1.582-4.698c0.736-1.246,1.722-2.169,2.947-2.766
			c1.225-0.596,2.753-0.897,4.587-0.897c2.049,0,3.651,0.335,4.814,0.997c1.154,0.662,2.024,1.474,2.604,2.422
			c0.58,0.948,0.936,1.941,1.068,2.993c0.141,1.039,0.207,1.945,0.207,2.699v0.529h-4.612v-0.488c0-0.679-0.058-1.362-0.182-2.053
			c-0.116-0.688-0.331-1.309-0.642-1.855c-0.314-0.538-0.733-0.969-1.255-1.3c-0.525-0.322-1.209-0.472-2.045-0.446
			c-0.861,0-1.598,0.157-2.223,0.467c-0.617,0.315-1.13,0.898-1.536,1.752c-0.405,0.853-0.704,2.028-0.886,3.519
			c-0.19,1.49-0.285,3.402-0.285,5.737c0,2.331,0.095,4.256,0.285,5.771c0.182,1.523,0.48,2.724,0.886,3.602
			c0.406,0.886,0.919,1.49,1.536,1.833c0.625,0.336,1.361,0.51,2.223,0.51c0.973,0,1.739-0.24,2.302-0.712
			c0.571-0.477,0.998-1.068,1.3-1.772c0.294-0.703,0.48-1.465,0.563-2.276s0.124-1.557,0.124-2.235v-0.493H470.152z"/>
		<path fill="#414042" d="M500.281,119.877h5.903l7.597,29.049h-4.807l-1.78-7.116h-8.449l-1.858,7.116h-4.811L500.281,119.877z
			 M506.429,138.104l-3.316-14.319h-0.082l-3.437,14.319H506.429z"/>
		<path fill="#414042" d="M535.701,119.877h8.204c2.269,0,4.069,0.356,5.415,1.06c1.35,0.708,2.376,1.706,3.076,2.989
			c0.699,1.292,1.154,2.823,1.374,4.604c0.216,1.771,0.327,3.734,0.327,5.874c0,2.141-0.111,4.103-0.327,5.879
			c-0.22,1.775-0.675,3.308-1.374,4.595c-0.7,1.292-1.727,2.289-3.076,2.993c-1.346,0.704-3.146,1.056-5.415,1.056h-8.204V119.877z
			 M540.313,145.428h3.8c0.944,0,1.756-0.174,2.442-0.53c0.688-0.352,1.242-0.948,1.677-1.788c0.431-0.841,0.749-1.971,0.948-3.395
			c0.198-1.424,0.307-3.196,0.307-5.312c0-2.032-0.1-3.755-0.282-5.162c-0.19-1.416-0.492-2.55-0.91-3.419
			c-0.414-0.87-0.969-1.49-1.656-1.871s-1.531-0.572-2.525-0.572h-3.8V145.428z"/>
		<path fill="#414042" d="M576.018,119.877h15.603v3.908h-10.995v8.056h10.35v3.908h-10.35v9.272h11.313v3.904h-15.921V119.877z"/>
		<path fill="#414042" d="M613.858,119.877h7.195l5.096,21.527h0.079l5.009-21.527h7.038v29.049h-4.368v-24.164h-0.078
			l-5.821,24.164h-3.883l-5.82-24.164h-0.083v24.164h-4.363V119.877z"/>
		<path fill="#414042" d="M667.634,137.578l-7.435-17.701h5.129l4.852,12.535l4.972-12.535h4.811l-7.717,17.701v11.348h-4.611
			V137.578z"/>
	</g>
	<g>
		<g>
			<path fill="#007F3E" d="M225.629,32.709l-1.079-1.074l4.274-5.336l1.885,1.507c0.743,0.592,1.252,0.236,1.578-0.172l0.784-0.977
				c0.184-0.232,0.271-0.524,0.238-0.822s-0.182-0.565-0.418-0.753l-6.524-5.229c-0.747-0.602-1.25-0.234-1.58,0.176l-0.78,0.973
				c-0.385,0.48-0.304,1.19,0.178,1.577l1.883,1.505l-4.197,5.245l-1.311-0.967c-6.286-4.639-13.715-7.582-21.487-8.516
				l-1.494-0.178V8.214h2.875c1.596,0,2.892-1.3,2.892-2.9V3.275c0-1.598-1.296-2.9-2.892-2.9h-13.653
				c-1.596,0-2.894,1.302-2.894,2.9v2.039c0,1.6,1.297,2.9,2.894,2.9h2.873v11.455l-1.493,0.178
				c-22.785,2.729-39.967,22.106-39.967,45.082c0,25.039,20.374,45.41,45.413,45.41c25.043,0,45.419-20.371,45.419-45.41
				C239.048,52.743,234.283,41.301,225.629,32.709z M193.628,105.073c-22.137,0-40.149-18.008-40.149-40.145
				c0-22.138,18.012-40.149,40.149-40.149s40.147,18.012,40.147,40.149C233.775,87.065,215.766,105.073,193.628,105.073z"/>
			<g>
				<g>
					<rect x="192.343" y="33.218" fill="#414042" width="1.138" height="6.71"/>
					
						<rect x="178.261" y="37.371" transform="matrix(0.8658 -0.5004 0.5004 0.8658 3.6244 94.9635)" fill="#414042" width="1.145" height="6.709"/>
					<polygon fill="#414042" points="171.91,52.553 171.336,53.544 165.53,50.187 166.093,49.197 					"/>
					<rect x="161.918" y="65.067" fill="#414042" width="6.711" height="1.145"/>
					<polygon fill="#414042" points="172.05,77.551 172.624,78.533 166.807,81.897 166.238,80.908 					"/>
					
						<rect x="179.499" y="86.485" transform="matrix(-0.8645 -0.5027 0.5027 -0.8645 290.5834 258.0135)" fill="#414042" width="1.144" height="6.706"/>
					<polygon fill="#414042" points="193.773,89.931 194.912,89.922 194.912,96.637 193.773,96.637 					"/>
					
						<rect x="207.857" y="85.767" transform="matrix(-0.8651 0.5016 -0.5016 -0.8651 433.4402 61.6829)" fill="#414042" width="1.139" height="6.711"/>
					<polygon fill="#414042" points="215.348,77.302 215.921,76.314 221.737,79.67 221.164,80.659 					"/>
					<rect x="218.628" y="63.643" fill="#414042" width="6.717" height="1.138"/>
					<polygon fill="#414042" points="215.205,52.307 214.64,51.315 220.45,47.96 221.021,48.949 					"/>
					
						<rect x="206.616" y="36.662" transform="matrix(0.8641 0.5034 -0.5034 0.8641 48.3049 -98.8509)" fill="#414042" width="1.14" height="6.71"/>
				</g>
				<g>
					<path fill="#414042" d="M191.656,29.093c0.012,0.625,0.536,1.122,1.161,1.105c0.619-0.013,1.115-0.53,1.109-1.155
						c-0.017-0.625-0.536-1.117-1.159-1.105C192.138,27.95,191.642,28.468,191.656,29.093z"/>
					<path fill="#414042" d="M188.541,29.401c0.074,0.619,0.625,1.072,1.25,1c0.619-0.071,1.066-0.625,0.998-1.246
						c-0.06-0.619-0.627-1.072-1.246-1.006C188.922,28.22,188.477,28.785,188.541,29.401z"/>
					<path fill="#414042" d="M185.461,29.981c0.13,0.613,0.723,1.01,1.341,0.886c0.608-0.124,1.004-0.714,0.879-1.327
						c-0.118-0.613-0.714-1.01-1.327-0.888C185.742,28.776,185.343,29.368,185.461,29.981z"/>
					<path fill="#414042" d="M182.449,30.825c0.178,0.599,0.805,0.942,1.403,0.77c0.596-0.178,0.946-0.811,0.768-1.403
						c-0.172-0.606-0.805-0.946-1.399-0.768C182.621,29.594,182.277,30.229,182.449,30.825z"/>
					<path fill="#414042" d="M179.521,31.927c0.228,0.583,0.886,0.871,1.461,0.646c0.588-0.228,0.868-0.88,0.65-1.463
						c-0.228-0.58-0.888-0.874-1.464-0.648C179.583,30.688,179.301,31.347,179.521,31.927z"/>
					<path fill="#414042" d="M176.703,33.28c0.273,0.563,0.952,0.791,1.511,0.518c0.563-0.279,0.789-0.957,0.513-1.513
						c-0.281-0.567-0.952-0.791-1.513-0.518C176.654,32.042,176.428,32.726,176.703,33.28z"/>
					<path fill="#414042" d="M174.004,34.876c0.325,0.536,1.021,0.708,1.557,0.385c0.536-0.325,0.702-1.017,0.377-1.552
						c-0.325-0.539-1.017-0.71-1.553-0.381C173.849,33.651,173.684,34.346,174.004,34.876z"/>
					<path fill="#414042" d="M171.462,36.704c0.371,0.503,1.079,0.612,1.582,0.242c0.511-0.371,0.61-1.072,0.238-1.583
						c-0.362-0.499-1.079-0.612-1.577-0.242C171.2,35.495,171.092,36.201,171.462,36.704z"/>
					<path fill="#414042" d="M169.084,38.747c0.412,0.466,1.126,0.516,1.6,0.102c0.466-0.41,0.509-1.124,0.104-1.596
						c-0.412-0.472-1.126-0.516-1.604-0.108C168.718,37.559,168.672,38.272,169.084,38.747z"/>
					<path fill="#414042" d="M166.896,40.98c0.453,0.435,1.169,0.42,1.602-0.033c0.435-0.456,0.414-1.172-0.042-1.603
						c-0.447-0.426-1.163-0.414-1.596,0.04C166.437,39.832,166.449,40.547,166.896,40.98z"/>
					<path fill="#414042" d="M164.911,43.4c0.486,0.395,1.201,0.319,1.586-0.172c0.399-0.486,0.316-1.194-0.172-1.587
						c-0.486-0.392-1.196-0.315-1.586,0.172C164.344,42.301,164.427,43.011,164.911,43.4z"/>
					<path fill="#414042" d="M163.15,45.985c0.515,0.352,1.215,0.207,1.559-0.311c0.352-0.52,0.215-1.222-0.309-1.565
						c-0.521-0.352-1.217-0.207-1.565,0.306C162.483,44.94,162.626,45.642,163.15,45.985z"/>
					<path fill="#414042" d="M161.61,48.717c0.55,0.3,1.238,0.102,1.54-0.447c0.3-0.553,0.095-1.238-0.447-1.542
						c-0.557-0.296-1.238-0.097-1.54,0.454C160.869,47.728,161.067,48.413,161.61,48.717z"/>
					<path fill="#414042" d="M160.322,51.567c0.573,0.255,1.238-0.006,1.486-0.575c0.254-0.578-0.006-1.246-0.575-1.495
						c-0.58-0.254-1.244,0.008-1.493,0.58C159.492,50.646,159.747,51.315,160.322,51.567z"/>
					<path fill="#414042" d="M159.279,54.519c0.596,0.207,1.238-0.112,1.437-0.708c0.207-0.592-0.118-1.226-0.708-1.431
						c-0.592-0.201-1.231,0.116-1.43,0.71C158.379,53.679,158.693,54.318,159.279,54.519z"/>
					<path fill="#414042" d="M158.501,57.56c0.613,0.141,1.226-0.229,1.368-0.834c0.153-0.613-0.22-1.215-0.824-1.368
						c-0.613-0.145-1.215,0.228-1.368,0.832C157.526,56.794,157.903,57.407,158.501,57.56z"/>
					<path fill="#414042" d="M157.992,60.644c0.625,0.097,1.199-0.325,1.296-0.94c0.095-0.629-0.325-1.205-0.944-1.293
						c-0.627-0.097-1.196,0.331-1.292,0.95C156.963,59.969,157.379,60.549,157.992,60.644z"/>
					<path fill="#414042" d="M157.76,63.765c0.625,0.043,1.164-0.426,1.203-1.051c0.04-0.625-0.435-1.164-1.06-1.203
						c-0.619-0.043-1.155,0.435-1.194,1.053C156.665,63.188,157.141,63.724,157.76,63.765z"/>
					<path fill="#414042" d="M157.793,66.895c0.625-0.015,1.122-0.524,1.109-1.155c-0.017-0.627-0.53-1.113-1.159-1.099
						c-0.621,0.013-1.118,0.53-1.105,1.149C156.659,66.415,157.168,66.914,157.793,66.895z"/>
					<path fill="#414042" d="M158.102,70.016c0.629-0.07,1.072-0.625,1.006-1.252c-0.068-0.619-0.625-1.065-1.25-1.001
						c-0.619,0.066-1.066,0.631-1.008,1.25C156.926,69.631,157.484,70.078,158.102,70.016z"/>
					<path fill="#414042" d="M158.681,73.088c0.619-0.122,1.01-0.714,0.886-1.327c-0.116-0.617-0.714-1.017-1.327-0.884
						c-0.619,0.116-1.01,0.714-0.886,1.323C157.479,72.813,158.068,73.214,158.681,73.088z"/>
					<path fill="#414042" d="M159.525,76.107c0.604-0.18,0.95-0.805,0.77-1.411c-0.172-0.596-0.803-0.94-1.403-0.76
						c-0.596,0.172-0.94,0.803-0.768,1.399C158.302,75.934,158.93,76.279,159.525,76.107z"/>
					<path fill="#414042" d="M160.627,79.037c0.583-0.229,0.877-0.88,0.646-1.464c-0.226-0.586-0.88-0.874-1.463-0.647
						c-0.586,0.228-0.867,0.879-0.642,1.465C159.395,78.967,160.047,79.263,160.627,79.037z"/>
					<path fill="#414042" d="M161.989,81.864c0.555-0.286,0.791-0.956,0.509-1.523c-0.28-0.563-0.95-0.786-1.507-0.514
						c-0.565,0.282-0.797,0.959-0.516,1.52C160.749,81.903,161.426,82.129,161.989,81.864z"/>
					<path fill="#414042" d="M163.583,84.553c0.536-0.327,0.71-1.021,0.378-1.557c-0.325-0.536-1.016-0.701-1.552-0.377
						c-0.536,0.323-0.702,1.017-0.381,1.553C162.351,84.697,163.055,84.871,163.583,84.553z"/>
					<path fill="#414042" d="M165.404,87.095c0.509-0.368,0.619-1.072,0.249-1.586c-0.371-0.505-1.072-0.604-1.582-0.235
						c-0.507,0.364-0.613,1.08-0.249,1.577C164.195,87.355,164.901,87.463,165.404,87.095z"/>
					<path fill="#414042" d="M167.447,89.467c0.466-0.414,0.524-1.122,0.102-1.594c-0.41-0.477-1.124-0.518-1.594-0.104
						c-0.468,0.41-0.518,1.126-0.104,1.598C166.265,89.831,166.979,89.881,167.447,89.467z"/>
					<path fill="#414042" d="M169.68,91.661c0.435-0.456,0.42-1.163-0.033-1.606c-0.447-0.422-1.161-0.406-1.596,0.041
						c-0.433,0.447-0.42,1.168,0.033,1.598C168.54,92.12,169.254,92.107,169.68,91.661z"/>
					<path fill="#414042" d="M172.1,93.647c0.395-0.488,0.325-1.204-0.172-1.594c-0.486-0.393-1.194-0.318-1.585,0.17
						c-0.394,0.497-0.311,1.196,0.172,1.606C171.001,94.203,171.717,94.128,172.1,93.647z"/>
					<path fill="#414042" d="M174.693,95.407c0.344-0.525,0.205-1.213-0.314-1.569c-0.518-0.348-1.226-0.207-1.569,0.315
						c-0.352,0.521-0.205,1.221,0.306,1.572C173.64,96.065,174.342,95.925,174.693,95.407z"/>
					<path fill="#414042" d="M177.424,96.943c0.296-0.547,0.097-1.234-0.454-1.536c-0.548-0.294-1.231-0.104-1.536,0.451
						c-0.302,0.547-0.093,1.233,0.449,1.527C176.434,97.696,177.119,97.498,177.424,96.943z"/>
					<path fill="#414042" d="M180.278,98.234c0.249-0.571-0.01-1.241-0.585-1.494c-0.578-0.244-1.238,0.013-1.49,0.584
						c-0.259,0.571,0.012,1.241,0.583,1.49C179.355,99.063,180.023,98.806,180.278,98.234z"/>
					<path fill="#414042" d="M183.228,99.27c0.199-0.588-0.12-1.226-0.708-1.433c-0.594-0.202-1.231,0.124-1.438,0.704
						c-0.199,0.601,0.124,1.238,0.71,1.437C182.379,100.176,183.029,99.861,183.228,99.27z"/>
					<path fill="#414042" d="M186.26,100.057c0.149-0.613-0.221-1.226-0.828-1.375c-0.608-0.148-1.221,0.224-1.374,0.828
						c-0.145,0.612,0.236,1.217,0.838,1.374C185.494,101.025,186.113,100.652,186.26,100.057z"/>
					<path fill="#414042" d="M189.353,100.562c0.089-0.621-0.332-1.201-0.948-1.3c-0.619-0.087-1.198,0.331-1.294,0.96
						c-0.097,0.612,0.332,1.185,0.95,1.283C188.669,101.601,189.255,101.174,189.353,100.562z"/>
					<path fill="#414042" d="M192.474,100.801c0.035-0.629-0.435-1.175-1.06-1.208c-0.625-0.037-1.161,0.435-1.203,1.06
						c-0.04,0.621,0.435,1.159,1.06,1.196C191.89,101.895,192.426,101.422,192.474,100.801z"/>
					<path fill="#414042" d="M195.601,100.76c-0.012-0.629-0.53-1.117-1.155-1.102c-0.625,0.013-1.12,0.53-1.105,1.151
						c0.013,0.629,0.53,1.122,1.155,1.109C195.121,101.902,195.614,101.381,195.601,100.76z"/>
					<path fill="#414042" d="M198.716,100.453c-0.07-0.616-0.625-1.072-1.252-1.006c-0.619,0.07-1.066,0.638-0.995,1.246
						c0.07,0.625,0.633,1.072,1.252,1.006C198.331,101.629,198.787,101.07,198.716,100.453z"/>
					<path fill="#414042" d="M201.798,99.874c-0.132-0.612-0.714-1.015-1.337-0.895c-0.608,0.124-1.01,0.725-0.884,1.333
						c0.122,0.621,0.714,1.006,1.327,0.895C201.513,101.083,201.914,100.479,201.798,99.874z"/>
					<path fill="#414042" d="M204.808,99.025c-0.18-0.592-0.805-0.939-1.401-0.766c-0.598,0.174-0.95,0.799-0.77,1.403
						c0.172,0.601,0.803,0.939,1.399,0.766C204.636,100.255,204.979,99.626,204.808,99.025z"/>
					<path fill="#414042" d="M207.737,97.929c-0.226-0.588-0.88-0.878-1.463-0.646c-0.586,0.232-0.867,0.882-0.648,1.466
						c0.228,0.579,0.886,0.873,1.472,0.642C207.675,99.162,207.962,98.5,207.737,97.929z"/>
					<path fill="#414042" d="M210.564,96.57c-0.286-0.563-0.957-0.795-1.523-0.518c-0.555,0.286-0.787,0.948-0.514,1.52
						c0.275,0.563,0.965,0.791,1.52,0.514C210.604,97.805,210.839,97.125,210.564,96.57z"/>
					<path fill="#414042" d="M213.259,94.973c-0.332-0.538-1.027-0.708-1.563-0.381c-0.53,0.331-0.702,1.022-0.376,1.561
						c0.323,0.534,1.024,0.699,1.554,0.377C213.404,96.206,213.574,95.511,213.259,94.973z"/>
					<path fill="#414042" d="M215.801,93.151c-0.37-0.51-1.078-0.621-1.589-0.249c-0.499,0.373-0.609,1.081-0.238,1.582
						c0.371,0.509,1.081,0.612,1.583,0.248C216.056,94.364,216.165,93.656,215.801,93.151z"/>
					<path fill="#414042" d="M218.175,91.11c-0.42-0.468-1.13-0.526-1.596-0.104c-0.474,0.414-0.518,1.117-0.109,1.598
						c0.41,0.472,1.132,0.514,1.602,0.1C218.533,92.29,218.589,91.582,218.175,91.11z"/>
					<path fill="#414042" d="M220.367,88.871c-0.462-0.431-1.169-0.423-1.6,0.037c-0.437,0.447-0.42,1.163,0.033,1.602
						c0.447,0.431,1.169,0.414,1.602-0.041C220.82,90.018,220.806,89.31,220.367,88.871z"/>
					<path fill="#414042" d="M222.35,86.453c-0.491-0.397-1.199-0.323-1.59,0.166c-0.393,0.496-0.319,1.204,0.172,1.598
						c0.486,0.389,1.203,0.306,1.596-0.178C222.911,87.555,222.836,86.842,222.35,86.453z"/>
					<path fill="#414042" d="M224.113,83.87c-0.52-0.351-1.221-0.212-1.573,0.302c-0.344,0.521-0.199,1.222,0.314,1.577
						c0.524,0.34,1.226,0.203,1.578-0.314C224.776,84.913,224.629,84.213,224.113,83.87z"/>
					<path fill="#414042" d="M225.653,81.131c-0.557-0.3-1.246-0.101-1.546,0.447c-0.296,0.551-0.098,1.238,0.453,1.545
						c0.542,0.293,1.238,0.095,1.536-0.447C226.398,82.123,226.196,81.438,225.653,81.131z"/>
					<path fill="#414042" d="M226.941,78.289c-0.573-0.256-1.246,0-1.492,0.576c-0.252,0.568,0.006,1.237,0.578,1.486
						c0.569,0.254,1.242-0.011,1.5-0.58C227.765,79.202,227.51,78.533,226.941,78.289z"/>
					<path fill="#414042" d="M227.976,75.33c-0.594-0.199-1.234,0.118-1.437,0.708c-0.199,0.592,0.12,1.232,0.71,1.431
						c0.592,0.209,1.229-0.116,1.437-0.708C228.887,76.17,228.57,75.539,227.976,75.33z"/>
					<path fill="#414042" d="M228.754,72.297c-0.612-0.149-1.221,0.221-1.366,0.828c-0.153,0.613,0.217,1.224,0.824,1.366
						c0.613,0.153,1.226-0.228,1.375-0.83C229.731,73.055,229.361,72.448,228.754,72.297z"/>
					<path fill="#414042" d="M229.257,69.211c-0.619-0.095-1.188,0.325-1.288,0.94c-0.093,0.621,0.331,1.198,0.944,1.295
						c0.619,0.096,1.194-0.337,1.293-0.95C230.3,69.877,229.876,69.3,229.257,69.211z"/>
					<path fill="#414042" d="M229.5,66.09c-0.629-0.05-1.166,0.426-1.205,1.053c-0.04,0.619,0.433,1.162,1.06,1.201
						c0.625,0.043,1.161-0.439,1.205-1.06C230.592,66.669,230.123,66.133,229.5,66.09z"/>
					<path fill="#414042" d="M229.464,62.956c-0.627,0.012-1.12,0.528-1.107,1.155c0.014,0.625,0.536,1.118,1.155,1.105
						c0.627-0.013,1.12-0.536,1.107-1.155C230.604,63.434,230.089,62.941,229.464,62.956z"/>
					<path fill="#414042" d="M229.156,59.841c-0.619,0.068-1.072,0.625-1,1.244c0.062,0.625,0.629,1.072,1.244,1.004
						c0.629-0.066,1.072-0.627,1-1.252C230.332,60.218,229.781,59.771,229.156,59.841z"/>
					<path fill="#414042" d="M228.576,56.761c-0.619,0.122-1.01,0.723-0.888,1.329c0.126,0.614,0.716,1.016,1.329,0.892
						c0.619-0.118,1.012-0.725,0.886-1.327C229.781,57.042,229.189,56.643,228.576,56.761z"/>
					<path fill="#414042" d="M227.731,53.749c-0.606,0.172-0.95,0.803-0.772,1.403c0.18,0.596,0.805,0.94,1.406,0.768
						c0.604-0.178,0.95-0.805,0.77-1.401C228.957,53.921,228.334,53.577,227.731,53.749z"/>
					<path fill="#414042" d="M226.633,50.818c-0.586,0.229-0.874,0.882-0.648,1.463c0.228,0.58,0.879,0.867,1.463,0.65
						c0.586-0.236,0.874-0.888,0.642-1.474C227.86,50.882,227.208,50.595,226.633,50.818z"/>
					<path fill="#414042" d="M225.269,47.993c-0.557,0.284-0.787,0.957-0.509,1.513c0.277,0.565,0.957,0.791,1.515,0.521
						c0.563-0.281,0.789-0.952,0.507-1.519C226.506,47.951,225.832,47.718,225.269,47.993z"/>
					<path fill="#414042" d="M223.673,45.304c-0.53,0.325-0.708,1.021-0.377,1.556c0.325,0.53,1.021,0.702,1.557,0.377
						s0.702-1.026,0.377-1.552C224.898,45.149,224.209,44.983,223.673,45.304z"/>
					<path fill="#414042" d="M221.854,42.762c-0.503,0.371-0.619,1.072-0.242,1.575c0.364,0.507,1.072,0.615,1.581,0.244
						c0.511-0.371,0.606-1.078,0.242-1.579C223.064,42.5,222.356,42.392,221.854,42.762z"/>
					<path fill="#414042" d="M219.811,40.382c-0.468,0.414-0.524,1.128-0.104,1.596c0.412,0.466,1.126,0.516,1.596,0.102
						c0.474-0.403,0.518-1.126,0.104-1.596C220.992,40.024,220.284,39.97,219.811,40.382z"/>
					<path fill="#414042" d="M217.575,38.196c-0.438,0.453-0.416,1.169,0.033,1.596c0.458,0.435,1.171,0.418,1.596-0.035
						c0.435-0.447,0.42-1.169-0.033-1.604C218.717,37.73,218.01,37.743,217.575,38.196z"/>
					<path fill="#414042" d="M215.155,36.211c-0.389,0.487-0.321,1.201,0.172,1.586c0.488,0.393,1.196,0.316,1.589-0.172
						c0.391-0.489,0.309-1.203-0.171-1.594C216.248,35.644,215.551,35.721,215.155,36.211z"/>
					<path fill="#414042" d="M212.57,34.443c-0.343,0.521-0.211,1.222,0.311,1.565c0.524,0.344,1.223,0.209,1.567-0.308
						c0.35-0.522,0.209-1.224-0.309-1.569C213.617,33.792,212.922,33.92,212.57,34.443z"/>
					<path fill="#414042" d="M209.842,32.91c-0.304,0.551-0.105,1.238,0.445,1.534c0.552,0.294,1.237,0.102,1.536-0.453
						c0.3-0.544,0.095-1.231-0.447-1.527C210.823,32.165,210.144,32.361,209.842,32.91z"/>
					<path fill="#414042" d="M206.99,31.616c-0.255,0.571,0,1.244,0.575,1.492c0.576,0.249,1.238-0.006,1.493-0.586
						c0.254-0.569-0.006-1.235-0.586-1.482C207.902,30.784,207.24,31.047,206.99,31.616z"/>
					<path fill="#414042" d="M204.03,30.579c-0.199,0.59,0.112,1.236,0.708,1.43c0.601,0.205,1.232-0.112,1.437-0.702
						c0.203-0.598-0.116-1.231-0.708-1.437C204.876,29.679,204.239,29.987,204.03,30.579z"/>
					<path fill="#414042" d="M200.997,29.801c-0.149,0.613,0.222,1.231,0.834,1.368c0.606,0.145,1.219-0.219,1.366-0.824
						c0.147-0.613-0.224-1.225-0.83-1.368C201.755,28.826,201.148,29.196,200.997,29.801z"/>
					<path fill="#414042" d="M197.911,29.292c-0.095,0.619,0.325,1.205,0.942,1.294c0.621,0.091,1.198-0.337,1.293-0.95
						c0.095-0.619-0.331-1.188-0.95-1.283C198.588,28.263,198.008,28.673,197.911,29.292z"/>
					<path fill="#414042" d="M194.79,29.058c-0.04,0.621,0.428,1.163,1.053,1.196c0.625,0.042,1.161-0.426,1.201-1.051
						c0.043-0.625-0.431-1.161-1.058-1.203C195.369,27.965,194.833,28.435,194.79,29.058z"/>
				</g>
				<circle fill="#414042" cx="194.681" cy="64.055" r="4.743"/>
				<polygon fill="#414042" points="213.849,45.582 189.394,72.071 186.912,69.542 				"/>
			</g>
		</g>
		<path fill="#007F3E" d="M142.874,94.509l-4.754-4.728c1.656-2.906,2.523-6.155,2.987-8.956c-0.795-2.583-1.397-5.245-1.795-7.979
			c-0.376-2.581-0.582-5.23-0.582-7.917c0-6.76,1.231-13.328,3.575-19.453c0.238-0.615,0.491-1.226,0.741-1.84
			c-1.768-0.41-3.927-0.729-6.487-0.729c-1.589,0-3.231,0.12-4.893,0.358h-0.006c-4.947-5.707-9.582-8.832-11.931-10.217l1.78-6.965
			c1.364-0.257,2.761-0.404,4.158-0.404c6.098,0,11.175,2.517,13.949,4.237l1.319,1.914l4.641,6.661
			c0.352-0.629,0.716-1.252,1.093-1.867l-4.119-5.92c0,0,0.008,0.006,0.021,0.006c1.794,1.352,3.457,2.861,5.011,4.469
			c0.702-1.045,3.006-4.005,3.006-4.005c-1.658-1.486-6.11-4.839-6.11-4.839c-7.739-5.568-17.234-8.859-27.496-8.859
			c-26.045,0-47.172,21.115-47.172,47.166c0,26.054,21.127,47.179,47.172,47.179c12.924,0,24.636-5.208,33.157-13.628
			c-1.325-1.718-2.557-3.498-3.674-5.353C145.045,93.536,143.768,94.128,142.874,94.509z M116.979,22.15
			c4.065,0,7.998,0.578,11.72,1.644c-0.987-0.12-1.987-0.192-3.033-0.192c-1.417,0-2.827,0.132-4.218,0.377l-1.184-0.397
			c-0.139-0.046-2.947-0.96-6.766-1.277C114.655,22.204,115.808,22.15,116.979,22.15z M101.561,40.742
			c5.839-4.622,16.201-5.646,16.3-5.655l1.039-0.1c2.264,1.364,6.595,4.363,11.175,9.615l-4.071,16.836
			c-6.746,2.026-13.003,4.099-15.87,5.053c-1.159-1.503-5.64-6.919-13.361-11.428l-0.199-0.105
			c0.292-6.125,3.099-12.533,3.099-12.533L101.561,40.742z M94.488,55.196c-1.819,0.847-7.766,3.918-11.473,9.321
			c-1.232-0.536-2.946-1.536-4.225-3.25v-1.324v-9.42h-0.052c1.582-3.391,5.409-9.925,13.115-14.713l6.634,4.502
			C97.09,42.914,94.734,48.297,94.488,55.196z M96.045,27.667c-3.051,2.554-4.779,5.116-4.912,5.297l-0.96,1.449
			c-5.682,3.667-9.263,8.145-11.44,11.692C82.506,38.339,88.57,31.904,96.045,27.667z M76.249,52.48h0.576v7.462
			c0,0-1.476,1.683-2.337,4.574C74.502,60.346,75.116,56.295,76.249,52.48z M82.075,88.875c-3.225-4.641-5.562-9.958-6.733-15.692
			v0.008c-0.575-4.225,0.973-8.19,2.045-10.329c1.589,1.966,3.595,3.072,5.005,3.647c0.114,1.849,0.849,9.705,5.562,17.712
			c-0.635,1.337-1.476,3.461-1.873,5.891L82.075,88.875z M84.367,91.889l2.687,0.923l3.252,4.922
			C88.14,95.975,86.146,94.021,84.367,91.889z M88.095,90.742c0.31-2.153,1.039-4.078,1.627-5.357
			c1.602,0.604,5.197,1.723,10.256,1.723c1.635,0,3.285-0.125,4.953-0.348c3.966,5.563,8.911,8.751,11.479,10.146l-2.568,6.893
			c-4.005,0.012-12.819-0.584-20.598-5.336L88.095,90.742z M101.727,104.312c4.813,1.316,9.149,1.59,11.796,1.59
			c0.147,0,0.273-0.008,0.412-0.008l0.853,0.422c0.054,0.017,0.762,0.364,2.007,0.828
			C111.484,107.114,106.407,106.125,101.727,104.312z M136.384,88.076l-1.376,1.163c-0.06,0.054-6.76,5.601-16.174,5.601
			l-0.265-0.008l-1.385-0.017l-0.04,0.111c-2.442-1.37-6.899-4.343-10.467-9.31l4.078-17.135c2.821-0.946,9.079-3.018,15.845-5.044
			l12.91,12.322c-0.085,2.662-0.575,8.023-2.939,12.506L136.384,88.076z M143.217,98.069c0.213-0.298,0.358-0.489,0.373-0.521
			l0.946-1.296c0.482-0.207,1.033-0.439,1.623-0.725C145.217,96.422,144.237,97.266,143.217,98.069z"/>
		<path fill="#414042" d="M89.722,85.385c1.602,0.604,5.197,1.723,10.256,1.723c1.635,0,3.285-0.125,4.953-0.348l1.747-1.143
			l4.078-17.135l-0.621-1.991c-1.159-1.503-5.64-6.919-13.361-11.428l-0.199-0.105l-2.086,0.238
			c-1.819,0.847-7.766,3.918-11.473,9.321l-0.623,1.993c0.114,1.849,0.849,9.705,5.562,17.712L89.722,85.385z"/>
		<path fill="#414042" d="M100.677,41.531c5.839-4.622,17.084-6.435,17.184-6.443l1.039-0.1l0.828-1.939l1.78-6.965l-0.06-2.105
			l-1.184-0.397c-0.139-0.046-5.092-1.387-6.766-1.277c-11.09-0.006-17.453,5.363-17.453,5.363
			c-3.051,2.554-4.779,5.116-4.912,5.297l-0.96,1.449l1.681,1.397l6.634,4.502L100.677,41.531z"/>
		<path fill="#414042" d="M139.597,74.605c-0.379-2.583-0.894-7.102-0.894-9.791c0-6.758,1.231-13.326,3.575-19.45
			c0.238-0.617,0.49-1.226,0.741-1.84c-1.768-0.412-3.925-0.729-6.487-0.729c-1.589,0-3.231,0.118-4.893,0.356h-0.006l-1.583,1.339
			l-4.072,16.836l0.596,1.999l12.91,12.32L139.597,74.605z"/>
		<g>
			<path fill="#414042" d="M116.795,107.144l-2.86-1.25l-0.093-2.095l2.568-6.893l0.735-1.979l0.064-0.111l1.36,0.017l0.265,0.008
				c9.414,0,16.114-5.547,16.174-5.601l1.376-1.163l0.187,0.19l0.004-0.009l1.544,1.523l4.754,4.728l0.343,3.561
				C143.217,98.069,131.516,106.142,116.795,107.144z"/>
		</g>
	</g>
</g>
</svg>
