<svg width="261" height="324" viewBox="0 0 261 324" fill="none" xmlns="http://www.w3.org/2000/svg">
<path d="M143.5 278.659C208.394 278.659 261.001 226.052 261.001 161.159C261.001 96.2655 208.394 43.6589 143.5 43.6589C78.607 43.6589 26.0005 96.2655 26.0005 161.159C26.0005 226.052 78.607 278.659 143.5 278.659Z" fill="url(#paint0_linear_325_1434)"/>
<path d="M207.072 49.6589H79.8494C75.1156 49.6589 70.5756 51.6695 67.2283 55.2484C63.881 58.8273 62.0005 63.6812 62.0005 68.7425V223.744H62.2186V278.174C62.2185 280.276 62.7221 282.342 63.6813 284.177C64.6406 286.011 66.0236 287.552 67.6983 288.653C69.373 289.753 71.2835 290.377 73.2475 290.463C75.2115 290.55 77.1635 290.097 78.9173 289.147L137.6 257.341C139.199 256.484 140.963 256.038 142.752 256.038C144.54 256.038 146.304 256.484 147.903 257.341L208.391 289.38C210.146 290.31 212.094 290.745 214.05 290.645C216.006 290.544 217.906 289.911 219.57 288.806C221.233 287.701 222.605 286.16 223.555 284.329C224.506 282.498 225.003 280.438 225 278.344L224.842 223.744V68.6895C224.829 63.6521 222.953 58.8245 219.625 55.2595C216.296 51.6945 211.784 49.6813 207.072 49.6589V49.6589Z" fill="#17CB9E"/>
<path fill-rule="evenodd" clip-rule="evenodd" d="M182.447 233.421L81.947 287.421L80.0537 283.897L180.554 229.897L182.447 233.421Z" fill="black"/>
<circle cx="143.5" cy="131.159" r="57.5" fill="black"/>
<path fill-rule="evenodd" clip-rule="evenodd" d="M143.001 84.6589C125.371 84.6589 110.215 95.2687 103.578 110.46C103.136 111.472 101.957 111.934 100.944 111.492C99.9322 111.049 99.4702 109.87 99.9124 108.858C107.163 92.2629 123.725 80.6589 143.001 80.6589C144.105 80.6589 145.001 81.5544 145.001 82.6589C145.001 83.7635 144.105 84.6589 143.001 84.6589Z" fill="white"/>
<path d="M146.482 98.5808L154.569 115.72C154.809 116.228 155.163 116.668 155.602 117.001C156.04 117.334 156.549 117.551 157.085 117.633L175.162 120.36C175.774 120.458 176.348 120.732 176.82 121.151C177.292 121.571 177.644 122.119 177.836 122.734C178.028 123.35 178.052 124.01 177.907 124.64C177.762 125.269 177.453 125.844 177.013 126.301L163.951 139.638C163.563 140.034 163.272 140.522 163.105 141.062C162.938 141.601 162.899 142.175 162.991 142.734L166.081 161.566C166.187 162.21 166.118 162.872 165.883 163.477C165.648 164.083 165.255 164.607 164.75 164.991C164.245 165.375 163.647 165.603 163.024 165.65C162.401 165.697 161.778 165.56 161.225 165.256L145.057 156.344C144.577 156.081 144.043 155.943 143.5 155.943C142.958 155.943 142.424 156.081 141.944 156.344L125.776 165.256C125.223 165.558 124.601 165.694 123.979 165.646C123.357 165.599 122.76 165.37 122.256 164.986C121.751 164.603 121.359 164.079 121.124 163.475C120.889 162.87 120.821 162.209 120.926 161.566L124.01 142.734C124.102 142.175 124.063 141.601 123.896 141.062C123.729 140.522 123.438 140.034 123.05 139.638L109.988 126.301C109.548 125.844 109.239 125.269 109.094 124.64C108.949 124.01 108.973 123.35 109.165 122.734C109.357 122.119 109.709 121.571 110.181 121.151C110.653 120.732 111.227 120.458 111.839 120.36L129.916 117.615C130.452 117.534 130.961 117.317 131.399 116.983C131.838 116.65 132.192 116.211 132.432 115.702L140.519 98.5629C140.8 97.9882 141.228 97.5061 141.755 97.17C142.283 96.834 142.888 96.6571 143.506 96.6589C144.123 96.6608 144.728 96.8413 145.253 97.1805C145.778 97.5197 146.204 98.0043 146.482 98.5808Z" fill="url(#paint1_linear_325_1434)"/>
<g filter="url(#filter0_f_325_1434)">
<ellipse cx="143.141" cy="194.832" rx="52.1402" ry="11.1729" fill="#6B6B6B" fill-opacity="0.39"/>
</g>
<path fill-rule="evenodd" clip-rule="evenodd" d="M40.5636 255.592C37.4616 259.587 35.6127 263.94 33.4563 268.432C33.0352 269.309 33.4069 270.359 34.2837 270.781C35.1611 271.204 36.2152 270.832 36.6367 269.955C38.6814 265.696 40.4061 261.544 43.3517 257.749C43.9477 256.982 43.8068 255.874 43.0361 255.281C42.2684 254.683 41.159 254.824 40.5636 255.592Z" fill="black"/>
<path fill-rule="evenodd" clip-rule="evenodd" d="M35.0276 242.716C24.4764 246.219 13.4877 251.876 4.59064 258.565C3.81419 259.149 3.65933 260.254 4.24643 261.028C4.83353 261.802 5.93897 261.96 6.71542 261.376C15.3183 254.908 25.9459 249.438 36.1466 246.054C37.0695 245.746 37.5675 244.749 37.2581 243.829C36.9488 242.909 35.9504 242.408 35.0276 242.716Z" fill="black"/>
<path fill-rule="evenodd" clip-rule="evenodd" d="M36.449 234.395C30.0843 230.212 22.149 228.992 14.6928 228.94C13.7187 228.937 12.9256 229.719 12.9222 230.686C12.9168 231.658 13.7036 232.451 14.6753 232.46C21.4669 232.504 28.7176 233.522 34.5149 237.332C35.3281 237.866 36.422 237.641 36.9546 236.833C37.4876 236.024 37.2617 234.93 36.449 234.395Z" fill="black"/>
<circle cx="248" cy="67.6589" r="6" fill="#FFD335"/>
<defs>
<filter id="filter0_f_325_1434" x="70.3099" y="162.968" width="145.661" height="63.7268" filterUnits="userSpaceOnUse" color-interpolation-filters="sRGB">
<feFlood flood-opacity="0" result="BackgroundImageFix"/>
<feBlend mode="normal" in="SourceGraphic" in2="BackgroundImageFix" result="shape"/>
<feGaussianBlur stdDeviation="10.3453" result="effect1_foregroundBlur_325_1434"/>
</filter>
<linearGradient id="paint0_linear_325_1434" x1="142.595" y1="5.39805" x2="145.002" y2="418.04" gradientUnits="userSpaceOnUse">
<stop stop-color="#FFFFD5"/>
<stop offset="1" stop-color="#F5F5AA"/>
</linearGradient>
<linearGradient id="paint1_linear_325_1434" x1="121.001" y1="96.6589" x2="173.001" y2="176.659" gradientUnits="userSpaceOnUse">
<stop stop-color="#C7AA41"/>
<stop offset="0.692708" stop-color="#FFD335"/>
</linearGradient>
</defs>
</svg>
